<?xml version="1.0" encoding="UTF-8"?>
<svg width="350px" height="204px" viewBox="0 0 350 204" version="1.1" xmlns="http://www.w3.org/2000/svg" xmlns:xlink="http://www.w3.org/1999/xlink">
    <!-- Generator: Sketch 64 (93537) - https://sketch.com -->
    <title>logo copy</title>
    <desc>Created with Sketch.</desc>
    <g id="Page-1" stroke="none" stroke-width="1" fill="none" fill-rule="evenodd">
        <g id="logo-copy" fill="#FFFFFF" fill-rule="nonzero">
            <path d="M168.52,0 L179.5,0 C179.59,3.73 179.58,7.45 179.56,11.18 C183.23,11.17 186.91,11.19 190.58,11.16 C190.61,14.82 190.61,18.48 190.5,22.14 C186.86,22.14 183.21,22.16 179.57,22.14 C179.57,25.74 179.56,29.35 179.59,32.96 C175.97,33.19 172.35,33.14 168.73,33.11 C168.71,29.45 168.71,25.78 168.69,22.11 C165.01,22.16 161.34,22.14 157.67,22.15 C157.61,18.5 157.62,14.84 157.61,11.19 C161.31,11.18 165.01,11.17 168.7,11.19 C168.62,7.46 168.95,3.71 168.52,0 Z" id="Path"></path>
            <path d="M104.94,30.91 C116,28.25 128.14,37.45 127.9,48.96 C128.75,59.02 119.95,68.45 109.94,68.64 C100.97,69.41 92.19,62.8 90.3,54.04 C87.53,44.02 94.77,32.8 104.94,30.91 Z" id="Path"></path>
            <path d="M148.91,30.89 C159.96,28.27 172.14,37.49 171.83,49 C172.72,59.35 163.3,68.94 153.01,68.67 C143.93,69.06 135.45,61.93 134.02,53 C131.99,43.19 139.08,32.72 148.91,30.89 Z" id="Path"></path>
            <path d="M192.9,30.91 C203.62,28.36 215.33,36.93 215.74,48.02 C216.6,55.55 212.29,63.12 205.6,66.55 C198.57,70.34 189.26,69 183.53,63.46 C177.1,57.44 175.76,46.84 180.58,39.45 C183.29,35.08 187.83,31.88 192.9,30.91 Z" id="Path"></path>
            <path d="M236.96,30.89 C246.57,28.73 256.99,35.3 259.2,44.9 C261.13,52.29 258.19,60.6 251.96,65.05 C246.17,69.37 237.86,69.91 231.56,66.38 C224.68,62.81 220.59,54.7 221.78,47.05 C222.69,39.16 229.13,32.28 236.96,30.89 Z" id="Path"></path>
            <path d="M108.47,96.38 C108.19,88.74 108.32,81.08 108.4,73.44 C152.37,73.57 196.34,73.47 240.31,73.49 C240.32,81.1 240.32,88.7 240.31,96.3 C196.36,96.35 152.41,96.2 108.47,96.38 Z" id="Path"></path>
            <path d="M0,115.75 C11.1,115.75 22.2,115.74 33.31,115.76 C33.33,126.38 33.29,137.01 33.32,147.64 C44.33,137.1 55.09,126.31 66.1,115.77 C77.29,115.74 88.48,115.74 99.67,115.77 C86.77,128.88 73.52,141.65 60.72,154.85 C76.85,170.49 92.43,186.71 108.7,202.18 C108.84,173.38 108.72,144.57 108.76,115.76 C120.11,115.74 131.46,115.74 142.81,115.76 C142.81,137.61 142.79,159.46 142.81,181.31 C160.94,181.26 179.06,181.37 197.18,181.25 C197.43,188.66 197.22,196.08 197.3,203.49 C153.24,203.49 109.17,203.53 65.11,203.47 C54.69,192.92 44.13,182.51 33.66,172.01 C33.51,182.52 33.68,193.02 33.57,203.53 C22.38,203.45 11.19,203.54 0,203.48 L0,115.75 Z" id="Path"></path>
            <path d="M206.63,115.75 C224.91,115.69 243.19,115.87 261.47,115.66 C267.24,131.35 272.29,147.31 277.74,163.12 C278.19,162.41 278.83,161.81 279.06,160.98 C284.27,145.89 289.6,130.84 294.86,115.76 C313.24,115.74 331.62,115.73 350,115.77 L350,203.43 C338.75,203.57 327.49,203.48 316.24,203.48 C316.22,183.3 316.34,163.11 316.18,142.92 C314.61,143.8 314.45,145.79 313.78,147.28 C307.25,166.03 300.55,184.72 294.02,203.47 C283.44,203.47 272.85,203.61 262.28,203.4 C255.65,184.23 248.79,165.15 242.1,146.01 C241.86,144.94 241.26,144.16 240.32,143.66 C240.29,163.6 240.33,183.55 240.31,203.5 C229.08,203.5 217.85,203.5 206.62,203.49 C206.64,174.25 206.61,145 206.63,115.75 Z" id="Path"></path>
        </g>
    </g>
</svg>